HIERARCHY
ROOT Pelvis
{
	OFFSET 0.000000 0.000000 0.000000
	CHANNELS 6 Xposition Yposition Zposition Xrotation Yrotation Zrotation
	JOINT LeftUpLeg_virtual
	{
		OFFSET 0.000000 0.000000 0.000000
		CHANNELS 3 Xrotation Yrotation Zrotation
		JOINT LeftUpLeg
		{
			OFFSET 18.735201 -5.666702 -4.541200
			CHANNELS 3 Xrotation Yrotation Zrotation
			JOINT LeftLeg
			{
				OFFSET -0.021200 -31.938179 0.493100
				CHANNELS 3 Xrotation Yrotation Zrotation
				JOINT LeftFoot
				{
					OFFSET 0.021200 -31.938179 -4.336299
					CHANNELS 3 Xrotation Yrotation Zrotation
					JOINT LeftToeBase
					{
						OFFSET 0.943001 -26.722000 15.023500
						CHANNELS 3 Xrotation Yrotation Zrotation
						End Site
						{
							OFFSET 0 0 0
						}
					}
				}
			}
		}
	}
	JOINT RightUpLeg_virtual
	{
		OFFSET 0.000000 0.000000 0.000000
		CHANNELS 3 Xrotation Yrotation Zrotation
		JOINT RightUpLeg
		{
			OFFSET -18.735201 -5.666702 -4.541200
			CHANNELS 3 Xrotation Yrotation Zrotation
			JOINT RightLeg
			{
				OFFSET 0.018946 -31.938133 0.493100
				CHANNELS 3 Xrotation Yrotation Zrotation
				JOINT RightFoot
				{
					OFFSET -0.018946 -31.938126 -4.336299
					CHANNELS 3 Xrotation Yrotation Zrotation
					JOINT RightToeBase
					{
						OFFSET -0.943001 -26.722004 15.023500
						CHANNELS 3 Xrotation Yrotation Zrotation
						End Site
						{
							OFFSET 0 0 0
						}
					}
				}
			}
		}
	}
	JOINT Hips_virtual
	{
		OFFSET 0.000000 0.000000 0.000000
		CHANNELS 3 Xrotation Yrotation Zrotation
		JOINT Hips
		{
			OFFSET -0.000000 -0.000000 -0.000000
			CHANNELS 3 Xrotation Yrotation Zrotation
			JOINT Spine
			{
				OFFSET 0.000000 10.199997 -0.299500
				CHANNELS 3 Xrotation Yrotation Zrotation
				JOINT Spine1
				{
					OFFSET 0.000000 11.900002 -1.516600
					CHANNELS 3 Xrotation Yrotation Zrotation
					JOINT Spine2
					{
						OFFSET 0.000000 13.600006 -2.842500
						CHANNELS 3 Xrotation Yrotation Zrotation
						JOINT Neck_virtual
						{
							OFFSET 0.000000 0.000000 0.000000
							CHANNELS 3 Xrotation Yrotation Zrotation
							JOINT Neck
							{
								OFFSET 0.000000 9.624100 -2.890100
								CHANNELS 3 Xrotation Yrotation Zrotation
								JOINT Head
								{
									OFFSET 0.000000 14.068802 -1.351900
									CHANNELS 3 Xrotation Yrotation Zrotation
									End Site
									{
										OFFSET 0 0 0
									}
								}
							}
						}
						JOINT LeftShoulder_virtual
						{
							OFFSET 0.000000 0.000000 0.000000
							CHANNELS 3 Xrotation Yrotation Zrotation
							JOINT LeftShoulder
							{
								OFFSET 15.263000 10.923401 -0.547700
								CHANNELS 3 Xrotation Yrotation Zrotation
								JOINT LeftArm
								{
									OFFSET 25.438599 -2.830597 -13.032500
									CHANNELS 3 Xrotation Yrotation Zrotation
									JOINT LeftForeArm
									{
										OFFSET 29.960503 0.000000 0.000000
										CHANNELS 3 Xrotation Yrotation Zrotation
										JOINT LeftHand
										{
											OFFSET 27.849251 0.000000 0.000000
											CHANNELS 3 Xrotation Yrotation Zrotation
											End Site
											{
												OFFSET 0 0 0
											}
										}
									}
								}
							}
						}
						JOINT RightShoulder_virtual
						{
							OFFSET 0.000000 0.000000 0.000000
							CHANNELS 3 Xrotation Yrotation Zrotation
							JOINT RightShoulder
							{
								OFFSET -15.263000 10.923401 -0.547700
								CHANNELS 3 Xrotation Yrotation Zrotation
								JOINT RightArm
								{
									OFFSET -25.438599 -2.830597 -13.032500
									CHANNELS 3 Xrotation Yrotation Zrotation
									JOINT RightForeArm
									{
										OFFSET -29.960503 0.000000 0.000000
										CHANNELS 3 Xrotation Yrotation Zrotation
										JOINT RightHand
										{
											OFFSET -27.849251 0.000000 0.000000
											CHANNELS 3 Xrotation Yrotation Zrotation
											End Site
											{
												OFFSET 0 0 0
											}
										}
									}
								}
							}
						}
					}
				}
			}
		}
	}
}
MOTION
Frames: 5
Frame Time: 0.03333333
0.293175 79.672119 4.069523 0.000000 0.000000 0.000000 11.724043 3.093528 -1.194441 -56.092351 1.313670 5.031149 78.892278 7.325945 -0.663511 -33.438513 5.765045 -5.746967 0.000000 0.000000 0.000000 11.724043 3.093528 -1.194441 -50.001694 -15.146380 -5.501631 76.678613 -8.363339 -4.618903 -39.141536 -10.472584 4.564332 0.000000 0.000000 0.000000 11.724043 3.093528 -1.194441 0.000001 0.000000 0.000000 9.929157 1.383498 1.115467 7.645338 0.753229 0.067568 0.000000 0.000000 0.000000 7.636952 0.840686 0.048856 -4.598235 -0.585318 2.974855 0.000000 0.000000 0.000000 7.636952 0.840686 0.048856 3.557358 -26.212547 4.772373 -62.403286 -21.804173 -66.738987 -179.999691 -70.549550 -179.999677 0.000000 0.000000 0.000000 7.636952 0.840686 0.048856 1.209610 13.189586 10.689360 -58.736806 43.251206 51.659859 -179.999732 73.628114 179.999718 0.000000 0.000000 0.000000 
0.298127 79.673431 4.076962 0.000000 0.000000 0.000000 11.767352 3.084140 -1.209043 -56.131041 1.294404 5.068980 78.904340 7.315161 -0.724377 -33.435422 5.771290 -5.718676 0.000000 0.000000 0.000000 11.767352 3.084140 -1.209043 -50.026467 -15.155650 -5.481550 76.648840 -8.376100 -4.633868 -39.125513 -10.471611 4.579296 0.000000 0.000000 0.000000 11.767352 3.084140 -1.209043 0.000000 0.000000 0.000000 9.912050 1.402311 1.099207 7.633174 0.769255 0.058698 0.000000 0.000000 0.000000 7.624632 0.856617 0.039881 -4.606034 -0.592502 2.989243 0.000000 0.000000 0.000000 7.624632 0.856617 0.039881 3.557353 -26.212553 4.772374 -62.439581 -21.913835 -66.819543 179.999950 -70.454207 179.999964 0.000000 0.000000 0.000000 7.624632 0.856617 0.039881 1.207720 13.175778 10.734723 -58.706862 43.206124 51.589652 179.999991 73.392760 179.999991 0.000000 0.000000 0.000000 
0.306879 79.671280 4.088089 0.000000 0.000000 0.000000 11.803195 3.070221 -1.234621 -56.168508 1.277280 5.107849 78.938969 7.296530 -0.777686 -33.445213 5.809139 -5.681137 0.000000 0.000000 0.000000 11.803195 3.070221 -1.234621 -50.037710 -15.172459 -5.463098 76.620960 -8.386223 -4.639218 -39.113983 -10.463522 4.595363 0.000000 0.000000 0.000000 11.803195 3.070221 -1.234621 -0.000001 0.000000 0.000000 9.894267 1.432610 1.086064 7.619997 0.793058 0.049376 0.000000 0.000000 0.000000 7.611148 0.880648 0.030305 -4.617394 -0.608905 3.016587 0.000000 0.000000 0.000000 7.611148 0.880648 0.030305 3.557359 -26.212552 4.772374 -62.514167 -22.042332 -66.916046 179.999814 -70.391165 179.999827 0.000000 0.000000 0.000000 7.611148 0.880648 0.030305 1.205947 13.146154 10.801878 -58.722681 43.168561 51.544081 179.999896 73.190552 -179.999909 0.000000 0.000000 0.000000 
0.321579 79.669640 4.102768 0.000000 0.000000 0.000000 11.840374 3.048690 -1.258800 -56.197656 1.293141 5.135244 78.963687 7.279921 -0.790103 -33.471960 5.841928 -5.648990 0.000000 0.000000 0.000000 11.840374 3.048690 -1.258800 -50.049970 -15.183715 -5.461134 76.593960 -8.398875 -4.631072 -39.102164 -10.435174 4.617461 0.000000 0.000000 0.000000 11.840374 3.048690 -1.258800 0.000000 0.000000 0.000000 9.877908 1.469681 1.071156 7.606520 0.822609 0.040046 0.000000 0.000000 0.000000 7.597282 0.910607 0.020585 -4.635293 -0.626971 3.046153 0.000000 0.000000 0.000000 7.597282 0.910607 0.020585 3.557355 -26.212553 4.772373 -62.621005 -22.195907 -67.031251 -179.999991 -70.314052 179.999991 0.000000 0.000000 0.000000 7.597282 0.910607 0.020585 1.205923 13.106003 10.860520 -58.781933 43.109101 51.531240 179.999691 72.944481 -179.999704 0.000000 0.000000 0.000000 
0.341574 79.671463 4.119957 0.000000 0.000000 0.000000 11.877905 3.020170 -1.274626 -56.209274 1.324610 5.149073 78.966713 7.271935 -0.783047 -33.510004 5.854676 -5.625459 0.000000 0.000000 0.000000 11.877905 3.020170 -1.274626 -50.064177 -15.182459 -5.472662 76.565123 -8.413599 -4.618025 -39.086055 -10.394654 4.647120 0.000000 0.000000 0.000000 11.877905 3.020170 -1.274626 -0.000001 0.000000 0.000000 9.862380 1.502107 1.054630 7.592695 0.849621 0.032110 0.000000 0.000000 0.000000 7.583052 0.938222 0.012215 -4.647981 -0.634089 3.065895 0.000000 0.000000 0.000000 7.583052 0.938222 0.012215 3.557355 -26.212543 4.772373 -62.695980 -22.305526 -67.112025 179.999868 -70.240354 179.999855 0.000000 0.000000 0.000000 7.583052 0.938222 0.012215 1.207701 13.049737 10.917852 -58.840331 43.111013 51.540170 179.999623 72.756172 -179.999650 0.000000 0.000000 0.000000 
